<svg width="36" height="36" viewBox="0 0 36 36" fill="none" xmlns="http://www.w3.org/2000/svg">
<path d="M0 6C0 2.68629 2.68629 0 6 0H30C33.3137 0 36 2.68629 36 6V30C36 33.3137 33.3137 36 30 36H6C2.68629 36 0 33.3137 0 30V6Z" fill="#0066FF"/>
<path d="M21.752 13.9992V28.9992H19.096V26.9512H18.776C17.6027 28.8072 15.9173 29.7352 13.72 29.7352C11.672 29.7352 10.04 29.0738 8.824 27.7512C7.608 26.4285 7 24.7218 7 22.6311V9H9.656V22.6311C9.656 24.0391 10.04 25.1805 10.808 26.0552C11.5973 26.9085 12.6747 27.3352 14.04 27.3352C15.4267 27.3352 16.6107 26.8658 17.592 25.9272C18.5947 24.9885 19.096 23.8151 19.096 22.4071V13.9992H21.752Z" fill="url(#paint0_linear_904_23107)"/>
<path d="M23.752 12.9992V27.9992H21.096V25.9512H20.776C19.6027 27.8072 17.9173 28.7352 15.72 28.7352C13.672 28.7352 12.04 28.0738 10.824 26.7512C9.608 25.4285 9 23.7218 9 21.6311V8H11.656V21.6311C11.656 23.0391 12.04 24.1805 12.808 25.0552C13.5973 25.9085 14.6747 26.3352 16.04 26.3352C17.4267 26.3352 18.6107 25.8658 19.592 24.9272C20.5947 23.9885 21.096 22.8151 21.096 21.4071V12.9992H23.752Z" fill="white"/>
<path d="M13 24V9H15.656V10.816H15.976C17.192 8.93867 18.888 8 21.064 8C23.0907 8 24.712 8.672 25.928 10.016C27.1653 11.3387 27.784 13.0347 27.784 15.104V29H25.128V15.104C25.128 13.7173 24.7333 12.5867 23.944 11.712C23.1547 10.8373 22.0773 10.4 20.712 10.4C19.3253 10.4 18.1307 10.88 17.128 11.84C16.1467 12.7787 15.656 13.9413 15.656 15.328V24H13Z" fill="url(#paint1_linear_904_23107)"/>
<path d="M15 23V8H17.656V9.816H17.976C19.192 7.93867 20.888 7 23.064 7C25.0907 7 26.712 7.672 27.928 9.016C29.1653 10.3387 29.784 12.0347 29.784 14.104V28H27.128V14.104C27.128 12.7173 26.7333 11.5867 25.944 10.712C25.1547 9.83733 24.0773 9.4 22.712 9.4C21.3253 9.4 20.1307 9.88 19.128 10.84C18.1467 11.7787 17.656 12.9413 17.656 14.328V23H15Z" fill="white"/>
<defs>
<linearGradient id="paint0_linear_904_23107" x1="18" y1="0" x2="18" y2="36" gradientUnits="userSpaceOnUse">
<stop stop-color="#003D99" stop-opacity="0"/>
<stop offset="1" stop-color="#003D99"/>
</linearGradient>
<linearGradient id="paint1_linear_904_23107" x1="18" y1="0" x2="18" y2="36" gradientUnits="userSpaceOnUse">
<stop stop-color="#003D99" stop-opacity="0"/>
<stop offset="1" stop-color="#003D99"/>
</linearGradient>
</defs>
</svg>
